<svg width="33" height="32" viewBox="0 0 33 32" fill="none" xmlns="http://www.w3.org/2000/svg">
<g clip-path="url(#clip0_340_1178)">
<path d="M16.667 32C25.5035 32 32.667 24.8366 32.667 16C32.667 7.16344 25.5035 0 16.667 0C7.83044 0 0.666992 7.16344 0.666992 16C0.666992 24.8366 7.83044 32 16.667 32Z" fill="#F8BAB9"/>
<path d="M19.667 16H13.667C13.217 16 12.917 16.3 12.917 16.75C12.917 17.2 13.217 17.5 13.667 17.5H19.667C20.117 17.5 20.417 17.2 20.417 16.75C20.417 16.3 20.117 16 19.667 16Z" fill="#3A3A5F"/>
<path d="M22.967 10.45C22.667 10.15 22.292 10 21.917 10H21.167V9.25C21.167 8.8 20.867 8.5 20.417 8.5C19.967 8.5 19.667 8.8 19.667 9.25V10H13.667V9.25C13.667 8.8 13.367 8.5 12.917 8.5C12.467 8.5 12.167 8.8 12.167 9.25V10H11.417C11.042 10 10.667 10.15 10.367 10.45C10.067 10.75 9.91699 11.125 9.91699 11.5V22C9.91699 22.375 10.067 22.75 10.367 23.05C10.667 23.35 11.042 23.5 11.417 23.5H21.917C22.292 23.5 22.667 23.35 22.967 23.05C23.267 22.75 23.417 22.375 23.417 22V11.5C23.417 11.125 23.267 10.75 22.967 10.45ZM21.917 21.55C21.917 21.775 21.692 22 21.467 22H11.867C11.642 22 11.417 21.775 11.417 21.55V14.875C11.417 14.725 11.642 14.5 11.867 14.5H21.542C21.767 14.5 21.992 14.725 21.992 14.95V21.55H21.917ZM21.917 12.775C21.917 12.925 21.842 13 21.692 13H11.642C11.492 13 11.417 12.925 11.417 12.775V11.725C11.417 11.575 11.492 11.5 11.642 11.5H21.692C21.842 11.5 21.917 11.575 21.917 11.725V12.775Z" fill="#3A3A5F"/>
<path d="M17.417 19H13.667C13.217 19 12.917 19.3 12.917 19.75C12.917 20.2 13.217 20.5 13.667 20.5H17.417C17.867 20.5 18.167 20.2 18.167 19.75C18.167 19.3 17.867 19 17.417 19Z" fill="#3A3A5F"/>
</g>
<defs>
<clipPath id="clip0_340_1178">
<rect width="32" height="32" fill="white" transform="translate(0.666992)"/>
</clipPath>
</defs>
</svg>
