<svg width="33" height="32" viewBox="0 0 33 32" fill="none" xmlns="http://www.w3.org/2000/svg">
<g clip-path="url(#clip0_340_1467)">
<path d="M16.333 32C25.1696 32 32.333 24.8366 32.333 16C32.333 7.16344 25.1696 0 16.333 0C7.49645 0 0.333008 7.16344 0.333008 16C0.333008 24.8366 7.49645 32 16.333 32Z" fill="#D8D1FF"/>
<g clip-path="url(#clip1_340_1467)">
<path d="M21.658 22.825C21.658 23.275 21.283 23.575 20.908 23.575H8.90801C8.45801 23.575 8.15801 23.425 7.78301 23.125C7.48301 22.825 7.33301 22.45 7.33301 22V13C7.33301 12.55 7.70801 12.25 8.08301 12.25C8.45801 12.25 8.83301 12.625 8.83301 13V21.25C8.83301 21.625 9.13301 22 9.58301 22H20.833C21.283 22.075 21.658 22.375 21.658 22.825Z" fill="#3A3A5F"/>
<path d="M24.658 9.925C24.208 9.475 23.683 9.25 23.083 9.25H18.133L16.933 8.05C16.783 7.9 16.558 7.75 16.258 7.75H12.583C11.983 7.75 11.458 7.975 11.008 8.425C10.558 8.875 10.333 9.4 10.333 10V18.25C10.333 18.85 10.558 19.375 11.008 19.825C11.458 20.275 11.983 20.5 12.583 20.5H23.083C23.683 20.5 24.208 20.275 24.658 19.825C25.108 19.375 25.333 18.85 25.333 18.25V11.5C25.333 10.9 25.108 10.375 24.658 9.925ZM23.833 18.25C23.833 18.475 23.758 18.625 23.608 18.775C23.458 18.925 23.308 19 23.083 19H12.583C12.358 19 12.208 18.925 12.058 18.775C11.908 18.625 11.833 18.475 11.833 18.25V10C11.833 9.775 11.908 9.625 12.058 9.475C12.208 9.325 12.358 9.25 12.583 9.25H16.033L17.233 10.45C17.383 10.6 17.608 10.75 17.908 10.75H23.083C23.308 10.75 23.458 10.825 23.608 10.975C23.758 11.125 23.833 11.275 23.833 11.5V18.25Z" fill="#3A3A5F"/>
<path d="M21.958 16L19.858 12.625C19.633 12.4 19.333 12.25 18.958 12.25C18.658 12.25 18.358 12.4 18.133 12.7L17.233 13.9L16.933 13.45C16.783 13.15 16.483 13 16.183 13C15.808 13 15.508 13.225 15.358 13.45L13.783 15.925C13.558 16.225 13.483 16.6 13.633 16.9C13.783 17.275 14.158 17.5 14.533 17.5H21.058C21.433 17.5 21.733 17.35 21.883 17.05C22.108 16.75 22.108 16.375 21.958 16ZM15.508 16L16.183 14.875L16.483 15.25C16.858 15.775 17.758 15.775 18.133 15.25L19.033 14.125L20.233 16H15.508Z" fill="#3A3A5F"/>
</g>
</g>
<defs>
<clipPath id="clip0_340_1467">
<rect width="32" height="32" fill="white" transform="translate(0.333008)"/>
</clipPath>
<clipPath id="clip1_340_1467">
<rect width="18" height="18" fill="white" transform="translate(7.33301 7)"/>
</clipPath>
</defs>
</svg>
