<svg width="32" height="32" viewBox="0 0 32 32" fill="none" xmlns="http://www.w3.org/2000/svg">
<path d="M16 32C24.8366 32 32 24.8366 32 16C32 7.16344 24.8366 0 16 0C7.16344 0 0 7.16344 0 16C0 24.8366 7.16344 32 16 32Z" fill="#FFE381"/>
<rect width="18" height="18" transform="translate(7 7)" fill="#FFE381"/>
<path fill-rule="evenodd" clip-rule="evenodd" d="M12.8359 11.9688C12.8359 11.52 13.2137 11.1562 13.6797 11.1562H21.9062C22.3722 11.1562 22.75 11.52 22.75 11.9688C22.75 12.4175 22.3722 12.7812 21.9062 12.7812H13.6797C13.2137 12.7812 12.8359 12.4175 12.8359 11.9688Z" fill="white"/>
<path fill-rule="evenodd" clip-rule="evenodd" d="M12.8359 15.625C12.8359 15.1763 13.2137 14.8125 13.6797 14.8125H21.9062C22.3722 14.8125 22.75 15.1763 22.75 15.625C22.75 16.0737 22.3722 16.4375 21.9062 16.4375H13.6797C13.2137 16.4375 12.8359 16.0737 12.8359 15.625Z" fill="white"/>
<path fill-rule="evenodd" clip-rule="evenodd" d="M12.8359 19.2812C12.8359 18.8325 13.2137 18.4688 13.6797 18.4688H21.9062C22.3722 18.4688 22.75 18.8325 22.75 19.2812C22.75 19.73 22.3722 20.0938 21.9062 20.0938H13.6797C13.2137 20.0938 12.8359 19.73 12.8359 19.2812Z" fill="white"/>
<path fill-rule="evenodd" clip-rule="evenodd" d="M9.25 11.9688C9.25 11.2957 9.81664 10.75 10.5156 10.75H10.522C11.2209 10.75 11.7876 11.2957 11.7876 11.9688C11.7876 12.6418 11.2209 13.1875 10.522 13.1875H10.5156C9.81664 13.1875 9.25 12.6418 9.25 11.9688Z" fill="white"/>
<path fill-rule="evenodd" clip-rule="evenodd" d="M9.25 15.625C9.25 14.9519 9.81664 14.4062 10.5156 14.4062H10.522C11.2209 14.4062 11.7876 14.9519 11.7876 15.625C11.7876 16.2981 11.2209 16.8438 10.522 16.8438H10.5156C9.81664 16.8438 9.25 16.2981 9.25 15.625Z" fill="white"/>
<path fill-rule="evenodd" clip-rule="evenodd" d="M9.25 19.2812C9.25 18.6082 9.81664 18.0625 10.5156 18.0625H10.522C11.2209 18.0625 11.7876 18.6082 11.7876 19.2812C11.7876 19.9543 11.2209 20.5 10.522 20.5H10.5156C9.81664 20.5 9.25 19.9543 9.25 19.2812Z" fill="white"/>
</svg>
