<svg width="36" height="36" viewBox="0 0 36 36" fill="none" xmlns="http://www.w3.org/2000/svg">
<g id="Icons/menu">
<path id="Vector" d="M6 27C5.17158 27 4.5 26.3284 4.5 25.5C4.5 24.6715 5.17158 24 6 24H30C30.8284 24 31.5 24.6715 31.5 25.5C31.5 26.3284 30.8284 27 30 27H6ZM6 19.5C5.17158 19.5 4.5 18.8285 4.5 18C4.5 17.1715 5.17158 16.5 6 16.5H30C30.8284 16.5 31.5 17.1715 31.5 18C31.5 18.8285 30.8284 19.5 30 19.5H6ZM6 12C5.17158 12 4.5 11.3284 4.5 10.5C4.5 9.67158 5.17158 9 6 9H30C30.8284 9 31.5 9.67158 31.5 10.5C31.5 11.3284 30.8284 12 30 12H6Z" fill="#C8C8E3"/>
</g>
</svg>
