<svg width="37" height="36" viewBox="0 0 37 36" fill="none" xmlns="http://www.w3.org/2000/svg">
<g id="Icons/home">
<path id="Vector" d="M9.21699 29.4804H12.9295C13.267 29.4804 13.6045 29.1453 13.6045 28.8101V20.4302C13.6045 19.9274 14.1107 19.4246 14.617 19.4246H22.717C23.2232 19.4246 23.7295 19.9274 23.7295 20.4302V28.8101C23.7295 29.1453 24.067 29.4804 24.4045 29.4804H28.117C28.4545 29.4804 28.792 29.1453 28.792 28.8101V14.8994C28.792 14.5642 28.6232 14.2291 28.2857 14.0615L19.1732 7.35754C18.8357 7.02235 18.3295 7.02235 17.8232 7.35754L8.71074 14.0615C8.71074 14.2291 8.54199 14.5642 8.54199 14.8994V28.8101C8.54199 29.1453 8.87949 29.4804 9.21699 29.4804ZM5.16699 30.486V13.7263C5.16699 13.0559 5.50449 12.3855 6.01074 11.8827L17.1482 3.50279C17.992 2.8324 19.0045 2.8324 19.8482 3.50279L30.9857 11.8827C31.8295 12.3855 32.167 13.2235 32.167 13.8939V30.6536C32.167 31.9944 31.1545 33 29.8045 33H22.5482C21.1982 33 20.1857 31.9944 20.1857 30.6536V22.7765H16.8107V30.486C16.8107 31.8268 15.7982 32.8324 14.4482 32.8324H7.52949C6.17949 32.8324 5.16699 31.8268 5.16699 30.486Z" fill="#7646FF"/>
</g>
</svg>
