<svg width="20" height="20" viewBox="0 0 20 20" fill="none" xmlns="http://www.w3.org/2000/svg">
<path fill-rule="evenodd" clip-rule="evenodd" d="M5.8756 2.54188C6.96956 1.44791 8.45329 0.833332 10.0004 0.833332C11.5475 0.833332 13.0312 1.44791 14.1252 2.54188C15.2191 3.63584 15.8337 5.11957 15.8337 6.66667C15.8337 9.46055 16.4313 11.1955 16.982 12.2051C17.2585 12.712 17.5277 13.0446 17.7147 13.242C17.8085 13.3409 17.8821 13.4065 17.9265 13.4435C17.9486 13.462 17.9635 13.4733 17.9699 13.4781C17.9709 13.4788 17.9717 13.4794 17.9723 13.4798C18.2711 13.685 18.4033 14.0604 18.298 14.4082C18.1916 14.7596 17.8676 15 17.5004 15H2.50039C2.13317 15 1.80923 14.7596 1.70281 14.4082C1.59753 14.0604 1.72973 13.685 2.02847 13.4798C2.02905 13.4794 2.02985 13.4788 2.03085 13.4781C2.03726 13.4733 2.05214 13.462 2.07433 13.4435C2.11867 13.4065 2.19233 13.3409 2.28605 13.242C2.47308 13.0446 2.74232 12.712 3.01881 12.2051C3.5695 11.1955 4.16706 9.46055 4.16706 6.66667C4.16706 5.11957 4.78164 3.63584 5.8756 2.54188ZM4.29149 13.3333H15.7093C15.6459 13.2294 15.5822 13.1195 15.5188 13.0032C14.8195 11.7211 14.1671 9.70611 14.1671 6.66667C14.1671 5.5616 13.7281 4.50179 12.9467 3.72039C12.1653 2.93899 11.1055 2.5 10.0004 2.5C8.89532 2.5 7.83551 2.93899 7.05411 3.72039C6.27271 4.50179 5.83372 5.5616 5.83372 6.66667C5.83372 9.70611 5.18128 11.7211 4.48197 13.0032C4.41856 13.1195 4.3549 13.2294 4.29149 13.3333Z" fill="#F9B146"/>
<path fill-rule="evenodd" clip-rule="evenodd" d="M8.24512 16.9594C8.5437 16.7862 8.92615 16.8878 9.09935 17.1864C9.19092 17.3442 9.32235 17.4753 9.48048 17.5664C9.63861 17.6574 9.8179 17.7054 10.0004 17.7054C10.1829 17.7054 10.3622 17.6574 10.5203 17.5664C10.6784 17.4753 10.8099 17.3442 10.9014 17.1864C11.0746 16.8878 11.4571 16.7862 11.7557 16.9594C12.0542 17.1326 12.1559 17.515 11.9827 17.8136C11.7812 18.1609 11.4921 18.4491 11.1442 18.6495C10.7963 18.8499 10.4019 18.9554 10.0004 18.9554C9.59891 18.9554 9.20448 18.8499 8.85659 18.6495C8.5087 18.4491 8.21955 18.1609 8.0181 17.8136C7.8449 17.515 7.94654 17.1326 8.24512 16.9594Z" fill="#F9B146"/>
</svg>
