<svg width="10" height="6" viewBox="0 0 10 6" fill="none" xmlns="http://www.w3.org/2000/svg">
<path d="M9.61665 1.00016C9.61665 1.20016 9.54998 1.3335 9.41665 1.46683L5.41665 5.46683C5.28331 5.5335 5.14998 5.66683 4.94998 5.66683C4.74998 5.66683 4.61665 5.60016 4.48331 5.46683L0.483313 1.46683C0.283313 1.20016 0.283313 0.800163 0.483313 0.533496C0.683313 0.26683 1.14998 0.26683 1.34998 0.533496L4.88331 4.06683L8.41665 0.533496C8.61665 0.46683 8.81665 0.333496 8.94998 0.333496C9.08331 0.333496 9.28331 0.400163 9.41665 0.533496C9.54998 0.66683 9.61665 0.866829 9.61665 1.00016Z" fill="#3A3A5F"/>
</svg>
