<svg width="16" height="16" viewBox="0 0 16 16" fill="none" xmlns="http://www.w3.org/2000/svg">
<path fill-rule="evenodd" clip-rule="evenodd" d="M14.4663 3.19984C14.1997 2.8665 13.7997 2.6665 13.333 2.6665H2.86634C2.46634 2.6665 2.06634 2.8665 1.73301 3.19984C1.39967 3.53317 1.33301 3.93317 1.33301 4.39984V11.8665C1.33301 12.3332 1.46634 12.7332 1.79967 13.0665C2.13301 13.3998 2.46634 13.5998 2.93301 13.5998H13.3997C13.7997 13.5998 14.1997 13.3998 14.533 13.0665C14.7997 12.7332 14.9997 12.3332 14.9997 11.8665V4.39984C14.933 3.93317 14.7997 3.53317 14.4663 3.19984ZM8.39967 8.2665C8.33301 8.33317 8.26634 8.33317 8.19967 8.33317C8.13301 8.33317 8.06634 8.33317 7.99967 8.2665L3.06634 3.93317H13.4663L8.39967 8.2665ZM13.7997 11.7998C13.7997 11.9332 13.733 11.9998 13.6663 12.0665C13.5997 12.1332 13.533 12.1998 13.3997 12.1998H2.93301C2.79967 12.1998 2.73301 12.1332 2.66634 12.0665C2.59967 11.9998 2.53301 11.8665 2.53301 11.7998V5.33317L7.19967 9.2665C7.73301 9.73317 8.53301 9.73317 9.06634 9.2665L13.733 5.39984L13.7997 11.6665V11.7998Z" fill="#968FA9"/>
</svg>
