<svg width="36" height="36" viewBox="0 0 36 36" fill="none" xmlns="http://www.w3.org/2000/svg">
<g id="Icons/person">
<path id="Vector" d="M18 18C16.1438 18 14.625 17.325 13.275 15.975C11.925 14.7938 11.25 13.1062 11.25 11.25C11.25 9.39375 11.925 7.875 13.275 6.525C14.4562 5.175 16.1438 4.5 18 4.5C19.8562 4.5 21.375 5.175 22.725 6.525C24.075 7.70625 24.75 9.39375 24.75 11.25C24.75 13.1062 24.075 14.625 22.725 15.975C21.5438 17.325 19.8562 18 18 18ZM4.5 29.1375V26.775C4.5 26.1 4.66875 25.2562 5.00625 24.5812C5.5125 23.5687 6.1875 22.725 7.2 22.2188C8.8875 21.375 10.7438 20.7 12.6 20.1938C14.4563 19.6875 16.1438 19.6875 18 19.6875C19.8562 19.6875 21.7125 19.8562 23.5688 20.3625C25.425 20.8687 27.1125 21.375 28.8 22.3875C29.8125 22.8938 30.4875 23.7375 30.9938 24.75C31.3313 25.425 31.5 26.1 31.5 26.775V29.1375C31.5 30.4875 30.4875 31.5 29.1375 31.5H6.8625C5.5125 31.5 4.5 30.4875 4.5 29.1375ZM7.875 27.6188C7.875 27.8984 8.10165 28.125 8.38125 28.125H27.6188C27.8984 28.125 28.125 27.8984 28.125 27.6188V26.775C28.125 26.1918 27.8766 25.5813 27.3655 25.3003C27.3386 25.2856 27.3106 25.2709 27.2812 25.2562C25.7625 24.4125 24.2437 23.9062 22.725 23.5688C21.2063 23.2313 19.5188 23.0625 18 23.0625C16.4812 23.0625 14.7937 23.2313 13.275 23.5688C11.7562 23.9062 10.2375 24.5812 8.71875 25.2562C8.38125 25.425 8.2125 25.5938 8.04375 25.9313C7.875 26.2688 7.875 26.4375 7.875 26.775V27.6188ZM18 14.625C19.0125 14.625 19.6875 14.2875 20.3625 13.6125C21.0375 12.9375 21.375 12.2625 21.375 11.25C21.375 10.2375 21.0375 9.5625 20.3625 8.8875C19.6875 8.2125 19.0125 7.875 18 7.875C16.9875 7.875 16.3125 8.2125 15.6375 8.8875C14.9625 9.5625 14.625 10.2375 14.625 11.25C14.625 12.2625 14.9625 12.9375 15.6375 13.6125C16.3125 14.2875 16.9875 14.625 18 14.625Z" fill="#C8C8E3"/>
</g>
</svg>
