<svg width="17" height="16" viewBox="0 0 17 16" fill="none" xmlns="http://www.w3.org/2000/svg">
<path d="M13.2667 8.66665L9.2 12.7333C9.06667 12.8666 8.93333 12.9333 8.73333 12.9333C8.53333 12.9333 8.4 12.8666 8.26667 12.7333C8 12.4666 8 12.0666 8.26667 11.8L11.2667 8.79998H4.66667C4.33333 8.79998 4 8.53331 4 8.13331C4 7.73331 4.26667 7.46665 4.66667 7.46665H11.2667L8.26667 4.46665C8 4.19998 8 3.79998 8.26667 3.53331C8.53333 3.26665 8.93333 3.26665 9.2 3.53331L13.2667 7.59998C13.5333 7.99998 13.5333 8.39998 13.2667 8.66665Z" fill="#3A3A5F"/>
</svg>
