<svg width="37" height="36" viewBox="0 0 37 36" fill="none" xmlns="http://www.w3.org/2000/svg">
<g id="Icons/Calendar">
<g id="Vector">
<path d="M30.933 6.9C30.333 6.3 29.583 6 28.833 6H27.333V4.5C27.333 3.6 26.733 3 25.833 3C24.933 3 24.333 3.6 24.333 4.5V6H12.333V4.5C12.333 3.6 11.733 3 10.833 3C9.93301 3 9.33301 3.6 9.33301 4.5V6H7.83301C7.08301 6 6.33301 6.3 5.73301 6.9C5.13301 7.5 4.83301 8.25 4.83301 9V30C4.83301 30.75 5.13301 31.5 5.73301 32.1C6.33301 32.7 7.08301 33 7.83301 33H28.833C29.583 33 30.333 32.7 30.933 32.1C31.533 31.5 31.833 30.75 31.833 30V9C31.833 8.25 31.533 7.5 30.933 6.9ZM28.983 29.0684C28.983 29.5184 28.383 30 27.933 30H8.73301C8.28301 30 7.83301 29.55 7.83301 29.1V15.75C7.83301 15.45 8.28301 15 8.73301 15H28.083C28.533 15 28.983 15.45 28.983 15.9V29.0684ZM28.833 11.55C28.833 11.85 28.683 12 28.383 12H8.28301C7.98301 12 7.83301 11.85 7.83301 11.55V9.45C7.83301 9.15 7.98301 9 8.28301 9H28.383C28.683 9 28.833 9.15 28.833 9.45V11.55Z" fill="#C8C8E3"/>
<path d="M13.533 21H12.333C11.433 21 10.833 20.4 10.833 19.5C10.833 18.6 11.433 18 12.333 18H13.533C14.433 18 15.033 18.6 15.033 19.5C15.033 20.25 14.433 21 13.533 21Z" fill="#C8C8E3"/>
<path d="M19.0818 21H17.8818C16.9818 21 16.3818 20.4 16.3818 19.5C16.3818 18.6 16.9818 18 17.8818 18H19.0818C19.9818 18 20.5818 18.6 20.5818 19.5C20.5818 20.25 19.8318 21 19.0818 21Z" fill="#C8C8E3"/>
<path d="M24.6307 21H23.4307C22.5307 21 21.9307 20.4 21.9307 19.5C21.9307 18.6 22.5307 18 23.4307 18H24.6307C25.5307 18 26.1307 18.6 26.1307 19.5C26.1307 20.25 25.3807 21 24.6307 21Z" fill="#C8C8E3"/>
<path d="M13.533 27H12.333C11.433 27 10.833 26.4 10.833 25.5C10.833 24.6 11.433 24 12.333 24H13.533C14.433 24 15.033 24.6 15.033 25.5C15.033 26.4 14.433 27 13.533 27Z" fill="#C8C8E3"/>
<path d="M19.0818 27H17.8818C16.9818 27 16.3818 26.4 16.3818 25.5C16.3818 24.6 16.9818 24 17.8818 24H19.0818C19.9818 24 20.5818 24.6 20.5818 25.5C20.5818 26.4 19.8318 27 19.0818 27Z" fill="#C8C8E3"/>
<path d="M24.6307 27H23.4307C22.5307 27 21.9307 26.4 21.9307 25.5C21.9307 24.6 22.5307 24 23.4307 24H24.6307C25.5307 24 26.1307 24.6 26.1307 25.5C26.1307 26.4 25.3807 27 24.6307 27Z" fill="#C8C8E3"/>
</g>
</g>
</svg>
