<svg width="16" height="16" viewBox="0 0 16 16" fill="none" xmlns="http://www.w3.org/2000/svg">
<path d="M12.029 13.8247C11.2113 13.8247 10.2768 13.1238 10.2768 13.1238C10.2768 13.1238 10.16 13.0654 9.98474 12.9486C9.28386 12.4814 7.76529 11.4885 7.12282 10.9628C6.83078 10.7292 6.65556 10.3787 6.65556 10.0283C6.65556 9.79467 6.71397 9.44423 7.12282 9.09379C7.41485 8.80176 7.76529 8.50973 8.05732 8.21769L5.89628 9.67786C5.77946 9.73627 5.13699 10.1451 3.96886 9.79467C3.03436 9.50264 1.98304 9.1522 1.92463 9.1522L1.80782 9.09379C1.57419 8.91857 1.28216 8.62654 1.34056 8.15929C1.39897 7.45841 2.15826 7.16638 2.45029 7.04956L9.69271 4.07083C10.3936 3.77879 12.8467 2.78588 12.8467 2.78588C13.0219 2.72748 13.7228 2.49385 14.2484 2.9027C14.482 3.07792 14.7157 3.42835 14.6573 4.01242C14.6573 4.36286 14.482 5.18055 14.3068 6.34868L14.1316 7.57522L13.3723 12.4814C13.3139 12.8902 13.0803 13.6495 12.321 13.8247C12.2042 13.8247 12.1458 13.8247 12.029 13.8247ZM7.82369 9.96989C7.82369 10.0283 7.82369 10.0283 7.82369 9.96989C8.46617 10.4956 9.98474 11.4885 10.6272 11.8973C10.8608 12.0141 10.9776 12.1309 10.9776 12.1309C11.2113 12.3062 11.8537 12.6566 12.029 12.5982C12.0874 12.5982 12.1458 12.423 12.1458 12.2477L13.1387 5.99824C13.3139 4.94693 13.4307 4.07083 13.4307 3.77879C13.4307 3.72039 13.4307 3.72039 13.4307 3.72039C13.3723 3.72039 13.2555 3.72039 13.1971 3.77879C13.1971 3.77879 10.8024 4.77171 10.0431 5.06374L2.85914 8.10088C2.85914 8.10088 2.80073 8.10088 2.80073 8.15929C3.20958 8.2761 3.79364 8.50973 4.3193 8.62654C4.96177 8.80176 5.25381 8.62654 5.31221 8.62654L9.69271 5.70621C10.2184 5.35577 11.0945 4.77171 11.5617 5.35577C11.9706 5.82302 11.5033 6.4655 11.2113 6.81594C10.3936 7.63363 9.05023 8.91857 7.94051 9.96989C7.8821 9.96989 7.82369 9.96989 7.82369 9.96989Z" fill="#9D9DBB"/>
</svg>
